<?xml version="1.0" encoding="utf-8"?>
<!-- Generator: Adobe Illustrator 27.0.0, SVG Export Plug-In . SVG Version: 6.00 Build 0)  -->
<svg version="1.1" id="Layer_1" xmlns="http://www.w3.org/2000/svg" xmlns:xlink="http://www.w3.org/1999/xlink" x="0px" y="0px"
	 viewBox="0 0 144.21 66.4" style="enable-background:new 0 0 144.21 66.4;" xml:space="preserve">
<style type="text/css">
	.st0{fill:url(#SVGID_1_);}
	.st1{fill:url(#SVGID_00000097465572659058893750000006813550753454521989_);}
	.st2{fill:url(#SVGID_00000067956333673840803490000010655905473472824960_);}
	.st3{fill:url(#SVGID_00000153678671669232467550000014636958360991409316_);}
	.st4{fill:url(#SVGID_00000014636594721337613980000001134612826318379961_);}
	.st5{fill:#0A3963;}
	.st6{font-family:'MyriadPro-Regular';}
	.st7{font-size:21.5813px;}
	.st8{fill:#1174CE;}
	.st9{font-size:27.6633px;}
</style>
<g>
	<g>
		<linearGradient id="SVGID_1_" gradientUnits="userSpaceOnUse" x1="3.1539" y1="33.2792" x2="60.5299" y2="33.2792">
			<stop  offset="0" style="stop-color:#21409A"/>
			<stop  offset="0.3104" style="stop-color:#262262"/>
			<stop  offset="1" style="stop-color:#1C75BC"/>
		</linearGradient>
		<path class="st0" d="M59.85,43.76c-2.1,5.48-5.76,10.16-10.58,13.54c-4.94,3.46-10.75,5.29-16.79,5.29
			c-7.97,0-15.41-3.13-20.97-8.83c-5.56-5.69-8.52-13.21-8.33-21.18c0.18-7.51,3.22-14.6,8.57-19.96
			c5.34-5.36,12.42-8.43,19.93-8.63c6.91-0.18,13.67,2.07,19.05,6.36l-4.58,5.75c-4.04-3.21-9.1-4.9-14.27-4.76
			c-11.69,0.32-21.06,9.72-21.34,21.41c-0.14,5.97,2.07,11.61,6.24,15.87c4.17,4.27,9.74,6.62,15.71,6.62
			c9.03,0,17.28-5.67,20.51-14.1c0.36-0.95,0.23-1.97-0.34-2.82c-0.6-0.86-1.54-1.36-2.58-1.36H32.47v-7.35h17.59
			c3.45,0,6.68,1.69,8.64,4.54C60.64,36.97,61.06,40.57,59.85,43.76z"/>
	</g>
	<g>
		
			<linearGradient id="SVGID_00000034810556969790598980000016041494948678869150_" gradientUnits="userSpaceOnUse" x1="15.6737" y1="33.2807" x2="48.4915" y2="33.2807">
			<stop  offset="0" style="stop-color:#21409A"/>
			<stop  offset="0.3104" style="stop-color:#262262"/>
			<stop  offset="1" style="stop-color:#1C75BC"/>
		</linearGradient>
		<path style="fill:url(#SVGID_00000034810556969790598980000016041494948678869150_);" d="M48.49,38.3
			c-2.14,6.82-8.51,11.77-16.02,11.77c-9.26,0-16.79-7.53-16.79-16.79c0-9.26,7.53-16.79,16.79-16.79c3.65,0,7.12,1.15,10.04,3.33
			l-4.4,5.89c-1.64-1.22-3.59-1.87-5.64-1.87c-5.21,0-9.44,4.23-9.44,9.44s4.23,9.44,9.44,9.44c3.37,0,6.33-1.77,7.99-4.43H48.49z"
			/>
		
			<linearGradient id="SVGID_00000140696391425500077920000000613538950691324806_" gradientUnits="userSpaceOnUse" x1="41.165" y1="35.1227" x2="49.2558" y2="35.1227">
			<stop  offset="0" style="stop-color:#21409A"/>
			<stop  offset="0.3104" style="stop-color:#262262"/>
			<stop  offset="1" style="stop-color:#1C75BC"/>
		</linearGradient>
		<path style="fill:url(#SVGID_00000140696391425500077920000000613538950691324806_);" d="M49.26,33.28c0,0.29-0.01,0.58-0.02,0.86
			c-0.05,0.96-0.18,1.9-0.39,2.82h-7.68c0.48-1.13,0.74-2.38,0.74-3.68H49.26z"/>
	</g>
	<g>
		<g>
			
				<linearGradient id="SVGID_00000139265902082808629170000010238616220180659121_" gradientUnits="userSpaceOnUse" x1="35.1605" y1="33.2841" x2="49.2351" y2="33.2841">
				<stop  offset="0" style="stop-color:#21409A"/>
				<stop  offset="0.3104" style="stop-color:#262262"/>
				<stop  offset="1" style="stop-color:#1C75BC"/>
			</linearGradient>
			
				<rect x="35.16" y="29.61" style="fill:url(#SVGID_00000139265902082808629170000010238616220180659121_);" width="14.07" height="7.35"/>
		</g>
	</g>
	<g>
		
			<linearGradient id="SVGID_00000142892459601281603580000018371044137353073824_" gradientUnits="userSpaceOnUse" x1="32.4682" y1="33.2841" x2="49.7929" y2="33.2841">
			<stop  offset="0" style="stop-color:#21409A"/>
			<stop  offset="0.3104" style="stop-color:#262262"/>
			<stop  offset="1" style="stop-color:#1C75BC"/>
		</linearGradient>
		
			<rect x="32.47" y="29.61" style="fill:url(#SVGID_00000142892459601281603580000018371044137353073824_);" width="17.32" height="7.35"/>
	</g>
</g>
<text transform="matrix(1 0 0 1 45.2105 26.6425)" class="st5 st6 st7">allery</text>
<text transform="matrix(1 0 0 1 60.5313 49.3627)" class="st8 st6 st9">Streaks</text>
</svg>
